<?xml version="1.0" standalone="no"?>
<!DOCTYPE svg PUBLIC "-//W3C//DTD SVG 20010904//EN"
 "http://www.w3.org/TR/2001/REC-SVG-20010904/DTD/svg10.dtd">
<svg version="1.0" xmlns="http://www.w3.org/2000/svg"
 width="738.000000pt" height="559.000000pt" viewBox="0 0 738.000000 559.000000"
 preserveAspectRatio="xMidYMid meet">

<g transform="translate(0.000000,559.000000) scale(0.100000,-0.100000)"
fill="#000000" stroke="none">
<path d="M7348 5433 c6 -2 18 -2 25 0 6 3 1 5 -13 5 -14 0 -19 -2 -12 -5z"/>
<path d="M1427 5384 c-1 -1 -18 -4 -37 -8 -62 -10 -101 -21 -101 -29 2 -19 -1
-20 -9 -2 -6 14 -9 -3 -9 -54 -1 -41 2 -72 5 -68 3 3 6 26 6 51 0 27 4 44 9
40 5 -3 8 -32 5 -63 -2 -32 0 -64 5 -72 6 -10 9 -10 9 -1 0 6 5 12 10 12 6 0
10 -7 10 -15 0 -8 8 -16 18 -16 34 -3 167 3 174 8 5 2 8 55 8 116 -1 81 -3
107 -11 95 -11 -20 -30 -24 -26 -6 1 8 -11 13 -31 13 -18 1 -33 0 -35 -1z
m-97 -49 c0 -8 -4 -15 -10 -15 -5 0 -10 7 -10 15 0 8 5 15 10 15 6 0 10 -7 10
-15z m190 -45 c0 -5 -4 -10 -10 -10 -5 0 -10 5 -10 10 0 6 5 10 10 10 6 0 10
-4 10 -10z m-190 -66 c0 -35 -15 -30 -18 7 -2 19 2 28 8 24 5 -3 10 -17 10
-31z m184 1 c-4 -8 -8 -15 -10 -15 -2 0 -4 7 -4 15 0 8 4 15 10 15 5 0 7 -7 4
-15z m-137 -47 c-3 -7 -5 -2 -5 12 0 14 2 19 5 13 2 -7 2 -19 0 -25z"/>
<path d="M1541 5275 c0 -63 3 -115 8 -115 5 0 9 52 10 115 1 67 -3 115 -8 115
-6 0 -10 -49 -10 -115z"/>
<path d="M1220 5339 c0 -7 -9 -9 -21 -6 -11 3 -43 -1 -70 -9 l-49 -15 0 -114
c0 -123 1 -126 52 -106 47 19 63 24 71 23 4 -1 7 3 7 9 0 5 5 7 10 4 6 -4 10
35 10 109 0 64 -2 116 -5 116 -3 0 -5 -5 -5 -11z m0 -46 c0 -21 -3 -24 -9 -13
-6 8 -8 17 -5 21 2 4 -2 10 -8 12 -8 3 -6 6 5 6 12 1 17 -7 17 -26z m-3 -95
c-3 -7 -5 -2 -5 12 0 14 2 19 5 13 2 -7 2 -19 0 -25z m3 -44 c0 -8 -6 -11 -15
-8 -8 4 -15 9 -15 13 0 4 7 8 15 8 8 0 15 -6 15 -13z"/>
<path d="M1240 5335 c0 -8 2 -15 4 -15 2 0 6 7 10 15 3 8 1 15 -4 15 -6 0 -10
-7 -10 -15z"/>
<path d="M1060 5283 c0 -16 -2 -16 -10 -3 -9 13 -12 12 -26 -5 -13 -17 -16
-18 -24 -5 -7 11 -10 -1 -10 -38 0 -34 4 -51 10 -47 6 4 8 11 5 16 -7 11 3 49
14 49 4 0 5 -16 3 -35 -4 -33 2 -41 31 -36 4 0 7 -10 7 -24 0 -15 -6 -25 -15
-25 -9 0 -12 6 -8 17 4 11 3 14 -6 9 -8 -5 -10 -19 -5 -39 l6 -32 -21 19 c-19
17 -21 17 -21 3 0 -10 4 -17 9 -17 5 0 16 -3 25 -6 12 -4 16 0 16 15 0 12 5
21 11 21 7 0 9 -10 5 -24 -3 -14 -2 -28 4 -31 6 -4 10 36 10 114 0 67 -2 121
-5 121 -3 0 -5 -8 -5 -17z m-5 -74 c11 -16 1 -19 -13 -3 -7 8 -8 14 -3 14 5 0
13 -5 16 -11z"/>
<path d="M1240 5258 c0 -36 4 -35 14 5 4 16 2 27 -4 27 -5 0 -10 -14 -10 -32z"/>
<path d="M972 5240 c0 -14 2 -19 5 -12 2 6 2 18 0 25 -3 6 -5 1 -5 -13z"/>
<path d="M895 5220 c-11 -4 -23 -6 -28 -3 -4 2 -10 -3 -13 -11 -3 -9 -10 -13
-15 -10 -5 3 -9 0 -9 -5 0 -6 -4 -11 -9 -11 -18 0 -91 -54 -91 -67 0 -8 -4
-12 -8 -9 -5 3 -25 -10 -45 -28 -36 -32 -37 -35 -37 -104 0 -43 5 -74 12 -78
8 -5 9 -2 5 9 -3 9 -2 19 3 22 6 4 10 2 10 -4 0 -5 3 -16 6 -25 4 -12 0 -16
-15 -16 -18 0 -21 -6 -21 -41 0 -26 4 -38 11 -33 6 3 8 17 5 30 -4 14 -2 24 4
24 5 0 10 -18 10 -41 0 -48 20 -44 21 4 0 24 2 27 8 14 6 -16 11 -15 43 16 20
19 39 32 42 29 4 -3 6 2 6 11 0 10 6 17 13 17 8 0 23 8 35 18 11 10 33 27 47
38 65 46 72 53 52 54 -10 0 -16 4 -13 9 9 14 -20 32 -40 25 -16 -5 -16 -4 -4
5 8 6 22 8 32 5 14 -4 16 3 14 46 -2 39 0 48 10 40 9 -8 13 0 16 35 2 25 0 45
-4 45 -5 0 -8 -7 -8 -15 0 -19 -17 -20 -22 -1 -2 9 -10 11 -23 6z m34 -29 c9
-6 10 -11 2 -15 -6 -4 -11 -2 -11 4 0 6 -4 9 -9 5 -5 -3 -12 -1 -16 5 -8 12
15 13 34 1z m-23 -89 c-11 -10 -15 4 -8 28 l7 25 3 -23 c2 -13 1 -26 -2 -30z
m-176 -59 c0 -22 -2 -25 -10 -13 -13 20 -13 40 0 40 6 0 10 -12 10 -27z m-66
-18 c-4 -8 -8 -15 -10 -15 -2 0 -4 7 -4 15 0 8 4 15 10 15 5 0 7 -7 4 -15z m5
-62 c0 -25 -1 -26 -9 -8 -12 27 -12 35 0 35 6 0 10 -12 9 -27z m61 -98 c0 -8
-4 -15 -10 -15 -5 0 -7 7 -4 15 4 8 8 15 10 15 2 0 4 -7 4 -15z"/>
<path d="M973 5160 c0 -30 2 -43 4 -27 2 15 2 39 0 55 -2 15 -4 2 -4 -28z"/>
<path d="M1273 5170 c0 -25 2 -35 4 -22 2 12 2 32 0 45 -2 12 -4 2 -4 -23z"/>
<path d="M1241 5144 c0 -11 3 -14 6 -6 3 7 2 16 -1 19 -3 4 -6 -2 -5 -13z"/>
<path d="M940 5099 c0 -5 5 -7 10 -4 6 3 10 8 10 11 0 2 -4 4 -10 4 -5 0 -10
-5 -10 -11z"/>
<path d="M973 5065 c0 -22 2 -30 4 -17 2 12 2 30 0 40 -3 9 -5 -1 -4 -23z"/>
<path d="M990 5059 c0 -5 5 -7 10 -4 6 3 10 8 10 11 0 2 -4 4 -10 4 -5 0 -10
-5 -10 -11z"/>
<path d="M941 5044 c0 -11 3 -14 6 -6 3 7 2 16 -1 19 -3 4 -6 -2 -5 -13z"/>
<path d="M572 4995 c-12 -14 -22 -30 -22 -36 0 -5 -4 -8 -8 -5 -8 5 -58 -46
-127 -129 -14 -16 -32 -44 -40 -62 -9 -18 -26 -45 -39 -60 -12 -15 -30 -48
-40 -73 -10 -25 -23 -52 -31 -60 -7 -8 -16 -33 -20 -54 -4 -24 -10 -35 -14
-27 -8 12 -24 -32 -36 -101 -4 -21 -11 -38 -15 -38 -4 0 -11 -28 -16 -62 -11
-96 -12 -102 -17 -123 -2 -11 1 -23 7 -27 8 -5 7 -8 -1 -8 -8 0 -13 -13 -13
-31 0 -21 -4 -28 -12 -23 -10 6 -10 4 0 -8 9 -11 11 -32 6 -67 l-7 -51 64 -1
c67 -1 143 1 146 5 1 1 4 35 7 76 6 81 26 187 39 208 5 7 9 33 9 57 0 25 4 43
8 40 5 -3 16 22 26 55 9 33 21 60 25 60 5 0 9 5 9 11 0 14 31 80 45 96 5 7 16
19 23 27 6 8 12 22 12 29 0 8 7 20 15 27 8 7 15 21 15 31 0 11 6 19 14 19 15
0 27 56 20 95 -3 19 0 25 13 25 14 0 15 2 4 9 -10 7 -10 10 -1 13 10 3 8 11
-6 33 -17 27 -17 28 -1 22 14 -5 17 -1 16 31 -1 32 -2 33 -8 12 -4 -14 -10
-20 -13 -14 -9 14 2 55 13 48 5 -3 9 7 9 21 0 15 -4 24 -10 20 -5 -3 -10 -1
-10 4 0 18 -15 12 -38 -14z m45 -11 c-3 -3 -12 -4 -19 -1 -8 3 -5 6 6 6 11 1
17 -2 13 -5z m-33 -29 c-4 -8 -8 -15 -10 -15 -2 0 -4 7 -4 15 0 8 4 15 10 15
5 0 7 -7 4 -15z m-37 -117 c-3 -8 -6 -5 -6 6 -1 11 2 17 5 13 3 -3 4 -12 1
-19z m0 -110 c-2 -13 -4 -5 -4 17 -1 22 1 32 4 23 2 -10 2 -28 0 -40z m40 -10
c-3 -8 -6 -5 -6 6 -1 11 2 17 5 13 3 -3 4 -12 1 -19z m-60 -60 c-3 -8 -6 -5
-6 6 -1 11 2 17 5 13 3 -3 4 -12 1 -19z m-285 -213 c3 -14 1 -28 -3 -31 -5 -3
-9 9 -9 25 0 38 6 40 12 6z m-55 -187 c-3 -7 -5 -2 -5 12 0 14 2 19 5 13 2 -7
2 -19 0 -25z"/>
<path d="M1548 4945 c-3 -3 -24 -7 -49 -10 -90 -9 -218 -35 -260 -53 -24 -10
-63 -24 -86 -32 -24 -7 -43 -17 -43 -22 0 -4 -7 -8 -15 -8 -8 0 -15 -4 -15
-10 0 -5 -4 -10 -10 -10 -12 0 -87 -48 -135 -86 -61 -48 -133 -126 -173 -184
-20 -30 -43 -61 -49 -68 -7 -7 -13 -18 -13 -24 0 -6 -13 -37 -30 -70 -16 -32
-30 -64 -30 -71 0 -7 -6 -24 -14 -39 -8 -15 -20 -53 -26 -85 -6 -32 -15 -74
-19 -93 -4 -19 -5 -59 -3 -87 l4 -53 71 -1 c40 0 87 -2 105 -3 39 -4 52 14 52
76 0 24 5 61 11 83 5 22 14 57 20 78 31 122 152 293 269 378 49 36 140 90 159
95 206 55 206 55 240 43 43 -14 119 -13 137 2 8 6 14 8 14 3 0 -4 13 10 30 32
48 64 35 148 -31 194 -26 19 -100 35 -111 25z"/>
<path d="M621 4767 c2 -28 2 -29 7 -7 l5 25 8 -25 7 -25 1 26 c1 15 -5 29 -14
33 -12 4 -15 -2 -14 -27z"/>
<path d="M2875 4564 c-136 -11 -327 -51 -404 -85 -174 -77 -285 -148 -391
-251 -105 -101 -200 -219 -200 -247 0 -6 -4 -11 -8 -11 -8 0 -82 -150 -82
-167 0 -5 -7 -24 -16 -41 -8 -17 -16 -39 -17 -49 -1 -14 -10 -18 -46 -19 -25
0 -55 -3 -66 -6 -11 -4 -33 -9 -50 -13 -31 -7 -58 -16 -110 -36 -16 -7 -34
-13 -40 -14 -5 -2 -26 -12 -45 -24 -19 -11 -56 -32 -81 -45 -26 -14 -64 -41
-84 -61 -21 -19 -40 -35 -42 -35 -2 0 -20 -17 -38 -37 -25 -27 -35 -48 -35
-70 0 -17 -5 -35 -11 -39 -8 -4 -7 -9 2 -15 11 -7 10 -9 -4 -9 -10 0 -16 -4
-12 -9 3 -5 1 -12 -5 -16 -6 -4 -10 9 -10 32 -1 57 -17 19 -19 -42 -2 -101 -5
-110 -28 -113 -14 -2 -20 -8 -16 -18 3 -8 0 -14 -6 -14 -6 0 -11 11 -11 25 0
18 -5 25 -18 25 -15 0 -19 -9 -21 -50 -2 -39 1 -50 14 -50 10 0 15 -10 15 -31
0 -23 4 -30 15 -26 8 4 17 2 20 -3 4 -6 -5 -10 -19 -10 -25 0 -31 12 -27 48 1
8 -6 12 -16 10 -15 -2 -18 3 -16 32 1 19 0 28 -3 20 -3 -8 -10 -25 -16 -36 -7
-14 -7 -28 0 -40 5 -11 6 -28 1 -39 -6 -17 -8 -16 -8 9 -1 34 -12 28 -16 -9
-3 -22 1 -25 26 -25 16 0 29 -5 29 -11 0 -6 -7 -9 -15 -5 -8 3 -15 0 -15 -5 0
-6 9 -9 20 -6 11 3 23 1 26 -4 3 -5 -8 -9 -24 -9 -18 0 -32 6 -36 16 -4 9 -9
15 -11 12 -10 -9 7 -38 22 -38 8 0 11 -4 8 -10 -3 -5 -17 -10 -31 -10 -17 0
-24 -5 -24 -20 0 -11 5 -20 11 -20 6 0 9 7 5 15 -3 9 0 15 9 15 9 0 12 -6 9
-15 -5 -11 -2 -13 10 -9 9 3 16 1 16 -5 0 -6 -13 -11 -28 -11 -27 0 -52 -15
-52 -33 0 -4 5 -5 10 -2 6 3 10 2 10 -4 0 -5 -5 -13 -10 -16 -6 -3 -10 -47
-10 -96 0 -50 3 -88 8 -86 4 3 7 -16 8 -42 1 -66 61 -251 80 -244 10 4 14 -4
14 -28 0 -26 3 -30 10 -19 7 11 10 7 10 -17 0 -23 5 -33 15 -33 8 0 15 -9 15
-20 0 -12 12 -33 26 -48 l25 -27 -2 70 c-2 39 0 76 4 83 6 8 2 12 -12 12 -12
0 -21 -8 -24 -22 -2 -13 -5 -2 -6 25 -1 41 2 47 19 47 11 0 19 3 18 8 -1 4 2
22 6 40 5 22 4 38 -3 45 -6 6 -11 19 -11 28 0 9 -7 22 -15 29 -11 9 -12 16 -5
25 8 9 7 14 -1 17 -18 6 -24 232 -9 326 12 77 45 176 80 242 10 19 27 51 36
70 10 19 28 44 41 55 13 11 23 23 23 27 0 3 23 29 50 57 28 29 48 57 44 62 -3
6 0 10 7 8 24 -3 35 1 55 19 10 9 31 23 47 29 15 7 27 17 27 23 0 6 5 8 10 5
6 -4 22 0 35 9 22 15 94 42 134 51 9 3 45 11 80 20 35 8 68 15 75 14 70 -8
108 17 130 89 22 71 58 166 65 172 3 3 22 35 41 73 32 62 62 100 157 201 45
47 168 146 182 146 6 0 11 4 11 8 0 25 236 116 380 147 119 26 385 5 508 -39
151 -54 296 -143 402 -247 127 -124 172 -188 234 -329 55 -126 56 -128 89
-143 51 -25 117 15 117 70 0 41 -91 236 -153 328 -174 257 -441 439 -737 505
-73 16 -273 43 -282 38 -2 -1 -21 -3 -43 -4z m-1428 -1021 c-2 -16 -4 -5 -4
22 0 28 2 40 4 28 2 -13 2 -35 0 -50z m223 57 c0 -5 -2 -10 -4 -10 -3 0 -8 5
-11 10 -3 6 -1 10 4 10 6 0 11 -4 11 -10z m-244 -75 c-1 -8 -5 -17 -8 -21 -4
-3 -5 -11 -2 -18 3 -7 0 -23 -5 -37 -7 -19 -9 -12 -6 31 3 63 2 60 14 60 5 0
8 -7 7 -15z m-31 -45 c3 -5 -1 -10 -10 -10 -9 0 -13 5 -10 10 3 6 8 10 10 10
2 0 7 -4 10 -10z m-68 -40 c-3 -11 -1 -20 4 -20 5 0 9 -5 9 -12 0 -6 -8 -4
-19 6 -14 13 -20 14 -23 5 -3 -9 -6 -8 -11 4 -5 12 -1 17 13 17 11 0 20 5 20
10 0 6 3 10 6 10 4 0 4 -9 1 -20z m-341 -341 c1 -16 -2 -29 -7 -29 -5 0 -9 17
-9 37 0 42 14 36 16 -8z m72 -6 c-4 -21 -58 -30 -58 -9 0 9 7 13 20 11 11 -2
20 0 20 6 0 5 5 9 11 9 6 0 9 -7 7 -17z m-28 -42 c0 -5 -7 -14 -15 -21 -13
-10 -15 -9 -15 9 0 12 6 21 15 21 8 0 15 -4 15 -9z m-56 -73 c6 -5 2 -8 -11
-8 -17 0 -20 4 -15 22 4 16 7 18 10 8 3 -8 10 -18 16 -22z m26 -28 c0 -5 -2
-10 -4 -10 -3 0 -8 5 -11 10 -3 6 -1 10 4 10 6 0 11 -4 11 -10z m-33 -47 c-4
-3 -2 -12 4 -20 8 -9 8 -13 1 -13 -6 0 -13 -8 -15 -17 -2 -10 -4 -1 -4 20 0
20 5 37 10 37 6 0 7 -3 4 -7z m3 -114 c0 -22 -5 -29 -20 -29 -12 0 -20 7 -20
18 0 14 2 15 10 2 8 -12 10 -12 16 3 3 9 3 24 0 33 -3 8 -2 12 4 9 6 -3 10
-19 10 -36z m-50 -95 c0 -8 -4 -14 -10 -14 -5 0 -10 9 -10 21 0 11 5 17 10 14
6 -3 10 -13 10 -21z m-5 -44 c3 -5 -1 -10 -10 -10 -9 0 -13 5 -10 10 3 6 8 10
10 10 2 0 7 -4 10 -10z m102 -262 c-3 -8 -6 -5 -6 6 -1 11 2 17 5 13 3 -3 4
-12 1 -19z m3 -89 c0 -5 -4 -9 -10 -9 -5 0 -10 7 -10 16 0 8 5 12 10 9 6 -3
10 -10 10 -16z m30 -80 c-7 -11 -14 -18 -17 -15 -8 8 5 36 17 36 7 0 7 -6 0
-21z m10 -39 c0 -5 -2 -10 -4 -10 -3 0 -8 5 -11 10 -3 6 -1 10 4 10 6 0 11 -4
11 -10z"/>
<path d="M1823 4495 c-24 -17 -39 -71 -28 -105 7 -23 61 -60 79 -55 6 2 23 6
38 9 39 9 60 53 47 99 -16 60 -87 87 -136 52z"/>
<path d="M1315 4366 c-5 -2 -22 -7 -38 -10 -36 -8 -115 -86 -122 -122 -3 -16
-10 -36 -15 -45 -21 -39 10 -135 61 -190 22 -24 51 -64 64 -89 30 -57 67 -100
92 -104 11 -2 35 -11 55 -19 27 -12 38 -12 42 -4 3 9 5 9 5 0 1 -20 72 -16
123 7 50 22 88 56 125 112 20 30 25 49 25 107 0 72 -16 141 -33 141 -5 0 -9 6
-9 13 0 22 -73 83 -116 98 -21 8 -47 24 -57 36 -30 37 -81 62 -138 67 -30 3
-58 4 -64 2z m222 -138 c-3 -8 -6 -5 -6 6 -1 11 2 17 5 13 3 -3 4 -12 1 -19z
m-30 -75 c-2 -16 -4 -5 -4 22 0 28 2 40 4 28 2 -13 2 -35 0 -50z m-227 -17 c0
-3 -4 -8 -10 -11 -5 -3 -10 -1 -10 4 0 6 5 11 10 11 6 0 10 -2 10 -4z m216
-103 c-10 -10 -19 5 -10 18 6 11 8 11 12 0 2 -7 1 -15 -2 -18z m-247 -6 c12
-15 12 -17 -3 -11 -9 3 -16 13 -16 22 0 8 1 13 3 11 1 -2 9 -12 16 -22z m208
-79 c-2 -13 -4 -3 -4 22 0 25 2 35 4 23 2 -13 2 -33 0 -45z m30 -115 c-2 -32
-3 -6 -3 57 0 63 1 89 3 58 2 -32 2 -84 0 -115z m-30 35 c-2 -13 -4 -5 -4 17
-1 22 1 32 4 23 2 -10 2 -28 0 -40z m7 -43 c-4 -8 -8 -15 -10 -15 -2 0 -4 7
-4 15 0 8 4 15 10 15 5 0 7 -7 4 -15z"/>
<path d="M5260 3514 c-25 -9 -59 -29 -75 -45 l-31 -29 -282 0 -283 0 -24 -26
c-30 -32 -32 -73 -6 -105 23 -29 75 -34 386 -38 l210 -2 28 -30 c61 -64 145
-72 221 -20 46 31 68 77 68 143 -1 80 -39 130 -116 153 -27 8 -50 15 -50 15
-1 -1 -21 -8 -46 -16z"/>
<path d="M2738 3430 c-35 -36 -33 -71 8 -107 23 -21 36 -23 137 -24 62 0 149
-2 195 -3 76 -3 84 -1 107 22 35 34 34 85 -1 117 -27 25 -29 25 -221 25 l-195
0 -30 -30z"/>
<path d="M3348 3425 c-36 -36 -35 -69 1 -106 34 -33 -44 -29 609 -32 l353 -2
19 25 c28 36 25 81 -5 110 l-26 24 -462 4 -462 4 -27 -27z"/>
<path d="M1035 3260 c3 -5 8 -10 11 -10 2 0 4 5 4 10 0 6 -5 10 -11 10 -5 0
-7 -4 -4 -10z"/>
<path d="M1012 3220 c0 -14 2 -19 5 -12 2 6 2 18 0 25 -3 6 -5 1 -5 -13z"/>
<path d="M992 3190 c0 -14 2 -19 5 -12 2 6 2 18 0 25 -3 6 -5 1 -5 -13z"/>
<path d="M6222 3189 c-23 -11 -51 -32 -62 -46 l-19 -25 -353 6 c-194 3 -693 8
-1108 11 -415 3 -879 8 -1031 11 l-275 6 -27 -32 c-15 -17 -27 -41 -27 -53 0
-26 26 -61 55 -74 11 -6 189 -11 415 -12 217 -1 458 -4 535 -6 77 -2 457 -7
845 -10 388 -3 765 -8 838 -11 133 -4 134 -4 158 -33 29 -35 84 -55 138 -52
44 2 109 43 125 79 6 12 14 22 19 22 5 0 9 23 11 51 6 136 -122 227 -237 168z"/>
<path d="M1010 3169 c0 -18 2 -19 15 -5 8 8 15 17 15 20 0 3 -7 6 -15 6 -9 0
-15 -9 -15 -21z"/>
<path d="M3005 3125 c-34 -33 -33 -78 2 -111 26 -24 33 -26 111 -22 74 3 86 6
103 27 26 32 24 77 -6 106 -22 22 -32 25 -105 25 -73 0 -83 -3 -105 -25z"/>
<path d="M881 2924 c0 -11 3 -14 6 -6 3 7 2 16 -1 19 -3 4 -6 -2 -5 -13z"/>
<path d="M5863 2897 c-17 -7 -48 -27 -69 -46 l-37 -34 -426 7 c-417 7 -652 9
-2081 22 l-705 6 -27 -22 c-34 -26 -37 -73 -8 -109 19 -23 27 -24 168 -27 81
-1 174 -3 207 -4 33 -1 65 -1 70 0 15 3 135 -1 157 -5 10 -2 18 1 18 6 0 6 5
7 12 3 7 -4 73 -9 148 -10 592 -7 1185 -15 1620 -19 283 -3 592 -8 685 -10
l170 -5 25 -28 c84 -96 262 -49 286 75 11 54 11 64 -4 103 -19 48 -40 70 -90
91 -49 21 -73 23 -119 6z"/>
<path d="M2123 2845 c-53 -23 -58 -98 -8 -131 29 -19 177 -27 212 -11 66 30
61 125 -7 146 -51 15 -158 13 -197 -4z"/>
<path d="M6468 2590 c-42 -13 -88 -43 -94 -63 -6 -18 -24 -19 -547 -13 -298 3
-689 9 -868 12 l-326 6 -27 -33 c-22 -25 -26 -38 -21 -63 10 -45 40 -64 115
-70 36 -3 346 -8 690 -11 344 -3 701 -8 795 -11 165 -6 170 -7 195 -31 82 -83
196 -72 264 25 86 122 -34 294 -176 252z"/>
<path d="M3287 2536 c-61 -22 -56 -125 7 -145 18 -6 251 -13 576 -16 437 -5
550 -3 570 7 50 27 48 127 -3 143 -12 4 -227 9 -477 11 -250 2 -498 5 -551 7
-52 1 -107 -2 -122 -7z"/>
<path d="M1080 2366 c0 -9 5 -16 10 -16 6 0 10 4 10 9 0 6 -4 13 -10 16 -5 3
-10 -1 -10 -9z"/>
<path d="M1040 2315 c0 -8 5 -15 10 -15 6 0 10 7 10 15 0 8 -4 15 -10 15 -5 0
-10 -7 -10 -15z"/>
<path d="M1087 2306 c4 -6 6 -22 5 -36 -2 -20 -1 -22 7 -10 9 13 11 13 11 -1
0 -8 -7 -24 -15 -35 -19 -25 -19 -34 1 -34 14 0 14 -1 0 -16 -9 -8 -13 -21 -9
-27 4 -7 9 -4 14 9 5 14 7 10 6 -14 -1 -21 -6 -31 -14 -27 -7 2 -13 0 -13 -6
0 -5 7 -12 15 -15 8 -4 13 -10 10 -14 -6 -10 168 -177 195 -185 11 -3 20 -11
20 -16 0 -5 6 -9 14 -9 8 0 22 -8 32 -17 10 -10 18 -17 18 -15 1 4 44 -14 66
-27 26 -15 119 -50 150 -56 3 -1 21 -5 40 -10 19 -5 42 -9 50 -10 8 -1 35 -4
60 -8 25 -3 506 -9 1070 -12 564 -3 1230 -8 1480 -11 390 -5 465 -4 528 9 80
18 183 60 206 86 31 35 20 106 -20 121 -41 16 -65 12 -144 -22 l-75 -33 -570
3 c-1517 9 -1785 8 -1785 -2 0 -7 -3 -8 -8 -1 -4 6 -42 11 -84 12 -72 2 -77 1
-81 -20 l-4 -22 -2 22 -1 22 -242 1 c-251 0 -325 7 -392 35 -32 13 -40 14 -47
3 -7 -10 -9 -9 -9 5 0 10 -4 16 -8 13 -5 -3 -22 3 -38 13 -16 10 -37 17 -47
15 -9 -1 -17 3 -17 9 0 7 -26 29 -59 50 -32 20 -93 71 -136 112 -43 41 -82 75
-86 75 -5 0 -9 9 -9 20 0 12 -5 26 -10 33 -37 44 -47 52 -62 53 -11 1 -15 -3
-11 -10z m46 -57 c-8 -29 -13 -23 -13 14 0 22 3 28 9 18 5 -7 6 -22 4 -32z
m-6 -111 c-3 -7 -5 -2 -5 12 0 14 2 19 5 13 2 -7 2 -19 0 -25z m13 -59 c0 -6
-4 -7 -10 -4 -5 3 -10 11 -10 16 0 6 5 7 10 4 6 -3 10 -11 10 -16z m417 -206
c-3 -10 -5 -4 -5 12 0 17 2 24 5 18 2 -7 2 -21 0 -30z m-31 -12 c-4 -5 0 -12
6 -14 8 -3 6 -6 -4 -6 -18 -1 -24 10 -11 22 9 10 15 8 9 -2z m711 -23 c-3 -8
-6 -5 -6 6 -1 11 2 17 5 13 3 -3 4 -12 1 -19z"/>
<path d="M5685 2293 c-28 -8 -68 -35 -84 -57 -14 -19 -29 -19 -625 -13 -336 4
-943 10 -1349 14 l-737 6 -25 -23 c-34 -32 -33 -79 1 -111 30 -28 -45 -25 839
-33 363 -3 759 -8 880 -11 121 -3 393 -8 605 -11 l385 -6 30 -28 c33 -31 92
-60 124 -60 45 0 103 33 138 79 33 43 35 50 30 103 -5 55 -32 118 -51 118 -5
0 -17 7 -26 15 -18 16 -101 28 -135 18z"/>
<path d="M2453 2232 c-34 -27 -44 -63 -26 -99 17 -36 53 -48 156 -52 63 -2 69
0 97 28 45 44 38 100 -15 125 -47 23 -182 21 -212 -2z"/>
<path d="M1093 1206 l-28 -24 -3 -153 c-5 -184 2 -249 29 -278 17 -18 31 -21
103 -21 112 0 128 12 134 102 l4 65 -28 4 c-51 8 -63 1 -66 -39 -3 -34 -6 -37
-35 -40 l-33 -3 0 160 c0 152 1 161 19 161 40 0 51 -11 51 -52 l0 -39 43 3 42
3 3 49 c6 98 -25 126 -138 126 -58 0 -73 -4 -97 -24z"/>
<path d="M1382 979 l3 -252 103 2 c57 1 109 5 117 7 40 16 62 175 31 220 -12
17 -12 22 0 39 20 27 18 138 -3 182 -21 45 -45 53 -159 53 l-94 0 2 -251z
m160 149 c4 -11 4 -77 -1 -100 0 -5 -14 -8 -31 -8 l-30 0 0 60 c0 60 0 60 29
60 16 0 31 -6 33 -12z m5 -239 c2 -55 -5 -69 -38 -69 -28 0 -29 1 -29 49 0 44
3 50 23 54 36 7 42 2 44 -34z"/>
<path d="M1904 1221 c-11 -5 -29 -26 -38 -46 -15 -31 -17 -62 -14 -221 3 -184
3 -184 29 -208 20 -18 39 -25 75 -26 93 -3 105 -1 135 29 25 26 29 37 29 85 0
49 -2 56 -22 61 -50 11 -68 3 -68 -32 0 -36 -27 -58 -60 -48 -17 5 -19 17 -19
147 0 145 7 178 37 178 27 0 42 -20 42 -57 0 -32 1 -33 45 -33 l45 0 0 59 c0
49 -4 65 -24 88 -22 25 -31 28 -97 30 -41 2 -83 -1 -95 -6z"/>
<path d="M2218 1215 c-42 -23 -50 -73 -46 -271 3 -167 4 -173 27 -198 22 -24
31 -26 106 -26 66 0 85 3 96 18 38 45 41 65 37 255 -3 178 -4 188 -26 209 -18
19 -35 23 -95 25 -50 2 -80 -1 -99 -12z m124 -99 c10 -14 8 -242 -1 -276 -5
-19 -13 -25 -36 -25 l-30 0 -3 149 c-2 94 1 153 8 161 12 14 51 8 62 -9z"/>
<path d="M2497 1223 c-3 -5 -6 -118 -8 -253 l-4 -245 43 -3 c28 -2 44 1 47 10
2 7 6 58 9 113 3 55 5 102 6 105 0 6 56 -149 71 -197 9 -31 13 -33 54 -33 38
0 45 3 50 23 3 12 4 126 3 252 l-3 230 -42 3 -43 3 -1 -73 c-1 -40 -2 -99 -2
-130 0 -75 -12 -59 -56 78 -18 56 -37 106 -44 113 -12 12 -73 15 -80 4z"/>
<path d="M2822 1221 c-8 -5 -12 -23 -10 -47 3 -37 5 -39 41 -42 l37 -3 0 -205
0 -204 45 0 45 0 0 159 c0 87 3 179 6 205 7 46 7 46 45 46 l39 0 0 44 c0 33
-4 45 -17 48 -32 8 -218 7 -231 -1z"/>
<path d="M3108 1083 c-1 -76 -2 -187 -2 -248 l-1 -110 48 -3 47 -3 1 65 c1 37
2 72 3 78 2 18 36 23 36 5 0 -8 9 -45 20 -81 l21 -66 45 0 45 0 -7 38 c-4 20
-13 57 -21 80 -13 40 -13 46 4 64 25 27 38 239 17 279 -17 34 -37 39 -156 39
l-98 0 -2 -137z m167 -33 l0 -75 -32 -3 -33 -3 0 81 0 81 33 -3 32 -3 0 -75z"/>
<path d="M3473 1208 c-35 -17 -42 -59 -45 -253 -4 -235 -4 -234 133 -239 119
-4 129 18 129 266 l0 180 -29 29 c-27 27 -35 29 -98 28 -37 0 -78 -5 -90 -11z
m125 -198 c2 -63 0 -134 -3 -158 -6 -41 -8 -43 -38 -40 l-32 3 -2 135 c-3 174
-1 182 40 178 l32 -3 3 -115z"/>
<path d="M3745 1198 c-3 -13 -4 -126 -3 -253 l3 -230 120 0 120 0 3 43 c2 29
-1 42 -10 43 -7 1 -40 2 -73 4 l-60 2 -5 204 -5 204 -42 3 c-37 3 -43 0 -48
-20z"/>
<path d="M4270 1211 c-14 -4 -35 -22 -48 -41 -20 -30 -22 -44 -20 -124 l3 -91
78 -29 77 -29 0 -49 c0 -48 -1 -49 -27 -46 -23 2 -29 9 -33 38 -5 34 -7 35
-52 38 l-48 3 0 -45 c0 -53 14 -94 38 -112 11 -8 47 -13 98 -14 104 0 110 6
124 128 12 104 6 124 -37 140 -15 5 -50 18 -76 27 l-48 17 3 47 c3 40 6 46 27
49 27 4 41 -12 41 -49 0 -28 16 -39 55 -39 36 0 49 24 42 83 -7 57 -39 96 -80
98 -12 1 -38 2 -57 4 -19 1 -46 -1 -60 -4z"/>
<path d="M4500 1191 c0 -11 4 -22 9 -25 5 -3 12 -18 15 -33 4 -16 16 -46 26
-68 50 -107 60 -148 60 -252 l0 -103 35 -1 c19 -1 40 -2 46 -3 6 -1 12 38 15
104 2 58 9 119 16 135 12 32 18 48 67 162 42 97 41 103 -13 103 l-44 0 -33
-86 c-30 -77 -35 -84 -47 -67 -7 10 -16 29 -19 43 -3 14 -14 44 -24 68 -18 41
-20 42 -64 42 -38 0 -45 -3 -45 -19z"/>
<path d="M4910 1199 c-39 -14 -48 -39 -56 -146 -7 -110 -10 -105 86 -138 33
-11 66 -28 72 -38 9 -14 -2 -70 -15 -79 -24 -15 -57 13 -57 48 0 17 -7 23 -35
26 -52 6 -58 -2 -53 -67 7 -80 24 -94 124 -101 76 -6 81 -5 107 19 27 25 28
27 25 132 l-3 106 -77 26 -78 26 0 43 c0 46 17 65 51 57 15 -4 19 -15 19 -44
l0 -39 45 0 45 0 0 61 c0 73 -10 93 -51 108 -38 13 -114 13 -149 0z"/>
<path d="M5164 1201 c-2 -2 -4 -24 -4 -48 0 -43 0 -43 35 -43 l35 0 0 -205 0
-205 50 0 50 0 1 180 c1 99 3 185 4 190 1 6 3 17 4 25 1 10 12 15 35 15 39 0
51 20 40 64 -6 25 -7 25 -126 28 -66 2 -122 1 -124 -1z"/>
<path d="M5460 1138 c0 -35 -3 -147 -7 -250 l-6 -188 131 0 c129 0 131 0 130
23 -1 66 -2 67 -83 67 -40 0 -76 3 -78 8 -2 4 -2 28 1 55 l4 47 58 0 c56 0 58
1 63 30 10 48 0 60 -48 60 -69 0 -75 5 -75 66 l0 54 86 0 85 0 -3 43 -3 42
-127 3 -128 3 0 -63z"/>
<path d="M5771 1183 c-9 -18 -20 -468 -11 -476 3 -3 23 -7 45 -9 l40 -3 10
115 10 115 19 -112 c17 -97 22 -112 41 -115 11 -3 26 -3 33 0 10 3 30 56 37
97 1 6 3 12 5 15 1 3 8 32 15 65 13 60 13 59 9 -53 -5 -123 -6 -122 57 -125
l34 -2 5 95 c3 52 5 165 5 250 l0 155 -55 0 -55 0 -10 -50 c-5 -27 -13 -54
-16 -60 -4 -5 -10 -28 -13 -50 -4 -22 -12 -57 -18 -78 l-11 -38 -12 28 c-7 16
-15 55 -20 88 -4 33 -9 66 -11 75 -2 8 -7 31 -12 50 -7 34 -9 35 -59 38 -42 2
-54 -1 -62 -15z"/>
<path d="M6231 1187 c-40 -24 -50 -55 -51 -159 0 -92 1 -97 23 -103 12 -4 48
-16 80 -28 56 -21 58 -23 53 -51 -3 -16 -6 -35 -6 -42 0 -9 -11 -14 -29 -14
-27 0 -30 3 -33 38 -3 37 -3 37 -48 37 l-45 0 0 -64 c0 -56 3 -66 25 -82 32
-24 133 -31 177 -14 43 18 53 42 53 129 0 54 4 76 13 76 8 0 7 4 -3 10 -8 5
-11 10 -6 10 14 0 -15 30 -30 30 -10 0 -35 8 -74 26 -3 1 -15 5 -27 9 -16 5
-22 17 -25 45 -5 53 -1 60 32 60 26 0 29 -4 32 -37 3 -33 7 -39 33 -44 51 -9
65 5 65 66 0 42 -5 60 -24 82 -21 24 -32 28 -92 30 -46 2 -77 -1 -93 -10z"/>
<path d="M617 354 c-15 -15 -7 -44 12 -44 16 0 19 -7 18 -45 -2 -40 1 -47 20
-51 33 -9 43 3 43 51 0 38 3 44 23 47 14 2 22 10 22 23 0 18 -8 20 -65 23 -36
2 -69 0 -73 -4z"/>
<path d="M830 282 c0 -72 1 -74 23 -68 12 3 25 6 29 6 4 0 5 10 3 23 -4 21 -4
21 10 3 8 -10 12 -22 10 -26 -3 -5 11 -8 30 -8 35 0 45 14 25 34 -7 7 -8 19
-1 37 19 50 -3 68 -86 71 l-43 1 0 -73z m77 22 c-3 -3 -12 -4 -19 -1 -8 3 -5
6 6 6 11 1 17 -2 13 -5z"/>
<path d="M1067 297 c-29 -85 -31 -81 56 -83 42 -1 77 1 77 4 0 4 -12 35 -27
70 -25 56 -30 62 -58 62 -27 0 -32 -5 -48 -53z"/>
<path d="M1270 281 c0 -39 4 -72 8 -75 5 -3 21 2 37 10 23 12 31 12 44 1 9 -7
24 -12 34 -10 14 4 17 16 17 74 0 67 -1 70 -22 67 -14 -2 -24 -12 -28 -26 l-5
-24 -22 26 c-13 14 -32 26 -43 26 -18 0 -20 -7 -20 -69z"/>
<path d="M1518 336 c-21 -15 -24 -62 -5 -69 10 -4 10 -6 0 -6 -7 -1 -13 -13
-13 -29 0 -26 2 -27 53 -27 28 0 58 4 65 8 15 10 16 67 1 67 -8 0 -7 5 1 15
30 36 -61 73 -102 41z"/>
<path d="M1738 343 c-27 -4 -28 -6 -28 -74 0 -53 3 -69 14 -69 28 0 46 12 46
31 0 14 7 19 26 19 23 0 25 3 20 25 -4 14 -2 25 4 25 5 0 10 9 10 20 0 13 -7
20 -19 20 -11 0 -25 2 -33 3 -7 2 -25 2 -40 0z m59 -49 c-3 -3 -12 -4 -19 -1
-8 3 -5 6 6 6 11 1 17 -2 13 -5z"/>
<path d="M1920 318 c-67 -72 51 -167 121 -97 27 27 25 83 -3 103 -33 24 -93
20 -118 -6z m80 -48 c0 -19 -5 -30 -14 -30 -20 0 -29 16 -21 40 10 32 35 25
35 -10z"/>
<path d="M2140 269 l0 -70 28 3 c19 2 26 8 24 21 -4 24 15 21 21 -4 4 -16 12
-20 34 -17 19 2 27 8 24 18 -3 8 -4 26 -3 40 1 14 2 34 2 44 1 27 -17 36 -77
36 l-53 0 0 -71z m77 25 c-3 -3 -12 -4 -19 -1 -8 3 -5 6 6 6 11 1 17 -2 13 -5z"/>
<path d="M2360 270 c0 -67 1 -70 24 -70 15 0 26 7 29 18 4 13 5 12 6 -5 1 -16
6 -20 22 -16 11 3 25 15 29 27 9 21 9 21 9 -1 1 -18 7 -23 26 -23 24 0 25 2
25 70 l0 70 -34 0 c-28 0 -35 -4 -38 -22 -2 -13 -7 -23 -13 -23 -5 0 -11 10
-13 23 -3 18 -10 22 -38 22 l-34 0 0 -70z"/>
<path d="M2622 268 c3 -65 5 -73 23 -73 18 0 20 7 20 70 0 65 -2 70 -23 73
-22 3 -23 2 -20 -70z"/>
<path d="M2760 267 c0 -70 1 -74 22 -72 15 1 25 10 28 26 l6 24 15 -22 c9 -15
24 -23 41 -23 28 0 28 0 28 70 0 63 -2 70 -20 70 -15 0 -20 -7 -20 -25 0 -14
-4 -25 -8 -25 -5 0 -18 11 -30 25 -12 14 -31 25 -42 25 -18 0 -20 -7 -20 -73z"/>
<path d="M3020 327 c-20 -10 -26 -21 -28 -56 -4 -52 15 -78 55 -75 15 1 43 2
62 3 l34 1 -6 51 c-10 81 -52 109 -117 76z m51 -49 c-15 -5 -21 -14 -17 -23 3
-8 1 -15 -4 -15 -15 0 -12 48 3 53 6 2 18 2 26 -1 10 -4 8 -8 -8 -14z"/>
<path d="M3355 322 c-3 -7 -5 -38 -5 -67 0 -51 9 -65 41 -65 5 0 9 33 9 74 0
68 -2 75 -20 73 -11 -1 -22 -7 -25 -15z"/>
<path d="M3490 260 l0 -70 48 0 c26 0 55 7 64 14 27 20 34 71 14 101 -14 22
-24 25 -71 25 l-55 0 0 -70z m85 9 c5 -14 2 -25 -6 -30 -23 -15 -29 -10 -29
21 0 35 25 41 35 9z"/>
<path d="M3712 263 l3 -68 54 -3 c61 -4 87 11 58 33 -12 9 -14 15 -7 20 6 4
10 14 8 23 -1 10 1 23 5 30 15 23 -4 32 -64 32 l-60 0 3 -67z m85 21 c-3 -3
-12 -4 -19 -1 -8 3 -5 6 6 6 11 1 17 -2 13 -5z"/>
<path d="M3934 273 c-10 -32 -20 -63 -22 -68 -1 -7 27 -11 73 -11 51 -1 75 3
72 10 -3 6 -13 37 -23 69 -17 53 -20 57 -49 57 -29 0 -33 -4 -51 -57z"/>
<path d="M4153 322 c-14 -9 -16 -122 -2 -122 6 0 8 -3 6 -7 -3 -5 15 -7 40 -7
33 1 49 6 56 20 14 24 9 106 -6 116 -15 10 -78 10 -94 0z"/>
<path d="M4480 261 c0 -68 8 -84 38 -74 8 3 12 27 12 74 0 67 -1 69 -25 69
-24 0 -25 -2 -25 -69z"/>
<path d="M4620 270 c0 -33 -1 -63 -2 -67 -2 -5 9 -9 25 -11 22 -3 27 1 27 19
l0 22 23 -21 c13 -12 33 -22 44 -22 17 0 22 7 25 42 6 66 -1 98 -23 98 -14 0
-19 -7 -19 -25 0 -14 -4 -25 -9 -25 -5 0 -18 11 -29 25 -11 14 -29 25 -41 25
-19 0 -21 -6 -21 -60z"/>
<path d="M4843 314 c-6 -17 3 -29 20 -29 7 0 13 -20 15 -47 3 -43 5 -48 28
-48 24 0 28 10 27 73 0 11 8 17 22 17 28 0 34 7 28 30 -4 16 -15 19 -70 19
-47 0 -66 -4 -70 -15z"/>
<path d="M5085 317 c-28 -15 -35 -27 -35 -68 0 -46 28 -73 76 -71 38 2 53 13
72 55 10 24 10 33 -5 58 -10 16 -22 29 -28 30 -5 0 -21 2 -35 4 -14 2 -35 -2
-45 -8z m57 -79 c-16 -16 -43 -2 -35 19 10 29 27 34 37 12 6 -13 6 -23 -2 -31z"/>
<path d="M5653 317 c-51 -23 -54 -100 -5 -127 19 -11 38 -14 62 -9 19 4 39 5
44 2 5 -4 6 -2 3 4 -4 6 0 18 7 28 27 37 -9 103 -59 108 -17 2 -40 0 -52 -6z
m57 -68 c0 -26 -35 -26 -37 1 -1 11 2 18 8 15 5 -4 9 -1 9 5 0 6 5 8 10 5 6
-3 10 -15 10 -26z"/>
<path d="M5849 293 c0 -21 -2 -52 -5 -70 -4 -36 7 -43 79 -47 42 -2 43 -2 39
26 -4 23 -9 28 -33 28 -28 0 -29 2 -29 44 0 31 -5 46 -16 50 -29 11 -34 6 -35
-31z"/>
<path d="M6045 320 c-3 -5 -6 -30 -7 -55 -2 -41 2 -51 26 -71 18 -16 35 -23
47 -19 11 4 19 2 19 -5 0 -6 10 -2 22 10 12 11 25 20 30 20 15 0 9 107 -7 120
-25 21 -44 4 -47 -42 -2 -32 -8 -44 -21 -46 -14 -3 -18 1 -13 15 13 42 -29
105 -49 73z"/>
<path d="M6256 307 c-3 -13 1 -21 15 -24 10 -3 19 -10 20 -17 0 -6 1 -27 2
-46 2 -27 7 -36 22 -38 35 -4 48 13 47 60 -1 27 1 38 7 29 7 -11 9 -11 14 0 4
12 7 11 16 -1 9 -12 11 -10 11 12 0 35 -10 40 -85 42 -55 2 -64 0 -69 -17z"/>
<path d="M6472 313 c-5 -10 -9 -43 -8 -73 1 -50 3 -55 24 -58 18 -3 25 2 30
20 3 13 5 24 3 26 -1 1 6 10 14 19 10 10 13 18 7 22 -6 3 -14 19 -17 34 -8 31
-39 37 -53 10z"/>
<path d="M6633 316 c-13 -6 -23 -14 -23 -18 0 -3 -7 -14 -16 -22 -8 -9 -11
-16 -5 -16 6 0 11 -5 11 -11 0 -5 -4 -7 -10 -4 -19 12 -10 -4 19 -34 16 -16
27 -32 24 -35 -3 -2 4 -2 16 1 12 3 28 0 36 -7 11 -9 15 -9 15 -1 0 7 5 9 10
6 6 -4 7 -11 3 -18 -3 -6 8 -1 25 12 35 25 43 37 13 21 -25 -13 -42 -13 -18 1
9 5 17 19 17 29 0 10 5 22 10 25 6 4 7 13 1 23 -4 9 -6 23 -3 31 2 8 0 11 -6
8 -5 -4 -15 0 -22 8 -14 17 -64 18 -97 1z m64 -52 c8 -21 -13 -42 -28 -27 -13
13 -5 43 11 43 6 0 13 -7 17 -16z"/>
<path d="M6830 252 l0 -79 34 1 c32 1 33 2 24 26 l-9 25 23 -23 c14 -12 29
-22 36 -22 6 0 18 -10 28 -22 l16 -23 -6 25 c-3 14 -1 32 4 40 5 8 6 18 3 24
-11 17 -10 70 1 85 8 11 8 13 -1 7 -8 -4 -13 -2 -13 4 0 22 -45 6 -48 -18 l-3
-23 -20 26 c-12 14 -31 25 -45 25 -23 0 -24 -2 -24 -78z"/>
<path d="M7080 323 c-30 -12 -43 -66 -17 -76 10 -4 10 -6 0 -6 -7 -1 -13 -9
-13 -20 0 -21 15 -36 45 -43 11 -3 29 -9 39 -14 15 -5 17 -4 11 6 -6 9 -4 11
5 5 7 -4 16 -2 21 6 8 12 11 12 20 -1 9 -12 10 -11 6 7 -3 12 0 24 7 27 6 2 4
5 -4 5 -9 1 -16 10 -17 21 -1 12 3 18 9 14 7 -4 7 -1 0 12 -6 11 -10 24 -10
29 1 24 -65 42 -102 28z"/>
<path d="M5416 298 c-14 -20 -14 -24 1 -40 10 -11 12 -18 5 -18 -17 0 -15 -35
3 -50 22 -19 87 -15 102 6 9 12 13 13 13 4 0 -7 3 -11 6 -8 3 3 -2 22 -10 41
-10 24 -11 37 -4 39 8 3 7 11 -1 26 -17 32 -93 32 -115 0z"/>
<path d="M20 299 c0 -5 5 -7 10 -4 6 3 10 8 10 11 0 2 -4 4 -10 4 -5 0 -10 -5
-10 -11z"/>
<path d="M7000 289 c0 -5 5 -7 10 -4 6 3 10 8 10 11 0 2 -4 4 -10 4 -5 0 -10
-5 -10 -11z"/>
<path d="M7298 263 c7 -3 16 -2 19 1 4 3 -2 6 -13 5 -11 0 -14 -3 -6 -6z"/>
<path d="M6538 193 c6 -2 18 -2 25 0 6 3 1 5 -13 5 -14 0 -19 -2 -12 -5z"/>
<path d="M7358 173 c7 -3 16 -2 19 1 4 3 -2 6 -13 5 -11 0 -14 -3 -6 -6z"/>
<path d="M7005 160 c-3 -5 -1 -10 4 -10 6 0 11 5 11 10 0 6 -2 10 -4 10 -3 0
-8 -4 -11 -10z"/>
<path d="M7070 161 c0 -6 4 -12 8 -15 5 -3 9 1 9 9 0 8 -4 15 -9 15 -4 0 -8
-4 -8 -9z"/>
<path d="M7367 130 c3 -11 7 -20 9 -20 2 0 4 9 4 20 0 11 -4 20 -9 20 -5 0 -7
-9 -4 -20z"/>
<path d="M7300 133 c0 -4 9 -16 20 -28 15 -16 19 -29 14 -53 -5 -26 -9 -30
-20 -21 -11 9 -18 8 -29 -1 -8 -7 -15 -16 -15 -21 0 -10 70 -12 94 -3 19 7 22
54 4 54 -9 0 -9 3 0 12 9 9 6 17 -12 33 -25 23 -56 39 -56 28z"/>
<path d="M7101 84 c0 -11 3 -14 6 -6 3 7 2 16 -1 19 -3 4 -6 -2 -5 -13z"/>
<path d="M7200 90 c0 -5 5 -10 10 -10 6 0 10 5 10 10 0 6 -4 10 -10 10 -5 0
-10 -4 -10 -10z"/>
<path d="M111 53 c0 -4 4 -17 9 -28 8 -19 9 -19 9 2 1 12 -3 25 -9 28 -5 3
-10 3 -9 -2z"/>
<path d="M7085 41 c-7 -12 12 -24 25 -16 11 7 4 25 -10 25 -5 0 -11 -4 -15 -9z"/>
<path d="M7152 30 c0 -14 2 -19 5 -12 2 6 2 18 0 25 -3 6 -5 1 -5 -13z"/>
<path d="M18 33 c7 -3 16 -2 19 1 4 3 -2 6 -13 5 -11 0 -14 -3 -6 -6z"/>
<path d="M215 20 c-3 -5 -1 -10 4 -10 6 0 11 5 11 10 0 6 -2 10 -4 10 -3 0 -8
-4 -11 -10z"/>
<path d="M165 10 c3 -5 8 -10 11 -10 2 0 4 5 4 10 0 6 -5 10 -11 10 -5 0 -7
-4 -4 -10z"/>
<path d="M6910 10 c0 -5 5 -10 11 -10 5 0 7 5 4 10 -3 6 -8 10 -11 10 -2 0 -4
-4 -4 -10z"/>
<path d="M7225 10 c-3 -5 1 -10 9 -10 9 0 16 5 16 10 0 6 -4 10 -9 10 -6 0
-13 -4 -16 -10z"/>
</g>
</svg>
