<?xml version="1.0" standalone="no"?>
<!DOCTYPE svg PUBLIC "-//W3C//DTD SVG 20010904//EN"
 "http://www.w3.org/TR/2001/REC-SVG-20010904/DTD/svg10.dtd">
<svg version="1.0" xmlns="http://www.w3.org/2000/svg"
 width="222.000000pt" height="227.000000pt" viewBox="0 0 222.000000 227.000000"
 preserveAspectRatio="xMidYMid meet">

<g transform="translate(0.000000,227.000000) scale(0.100000,-0.100000)"
fill="#000000" stroke="none">
<path d="M718 1920 c-88 -11 -117 -36 -224 -192 l-96 -140 -30 29 c-29 28 -31
28 -152 28 -135 0 -167 -9 -192 -57 -19 -37 -21 -1042 -2 -1083 20 -44 55 -55
182 -55 63 0 126 4 140 10 14 5 37 27 50 49 25 38 27 40 57 29 19 -6 55 -41
96 -90 36 -43 78 -85 94 -93 23 -12 91 -15 386 -15 215 0 373 4 395 10 45 13
93 52 115 93 11 23 14 47 10 93 -5 45 -2 65 7 73 7 6 26 39 41 73 29 65 36
139 17 189 -9 23 -6 30 23 59 48 47 58 78 52 162 -3 40 -7 82 -9 93 -3 19 4
20 207 25 197 5 212 6 247 28 50 31 78 92 78 170 0 33 -5 73 -11 89 -12 34
-55 80 -89 98 -29 15 -225 24 -542 25 l-217 0 21 46 c48 110 -21 231 -145 255
-51 10 -430 9 -509 -1z m542 -75 c42 -22 60 -53 60 -107 0 -38 -6 -54 -29 -80
-27 -31 -33 -33 -117 -38 l-89 -5 -3 -32 -3 -33 491 0 c545 0 538 1 566 -65
33 -81 5 -180 -57 -202 -24 -8 -157 -12 -461 -12 -374 -1 -428 -3 -428 -16 0
-13 25 -15 166 -15 l166 0 40 -32 c100 -79 89 -207 -22 -265 -42 -23 -53 -24
-197 -21 -117 2 -153 0 -153 -9 0 -10 40 -13 168 -13 169 0 169 0 180 -24 33
-74 23 -146 -33 -220 l-36 -46 -139 0 c-118 0 -140 -2 -140 -15 0 -13 22 -15
135 -15 l134 0 16 -30 c28 -54 15 -99 -35 -125 -24 -13 -89 -15 -399 -15
l-369 0 -35 38 c-19 20 -53 58 -76 84 -48 53 -94 78 -145 78 l-36 0 0 433 0
433 31 30 c17 16 75 95 130 176 82 120 106 149 137 162 54 22 539 23 582 1z
m-918 -303 c5 -18 7 -250 6 -516 -2 -391 -6 -486 -17 -499 -20 -25 -222 -25
-242 0 -21 24 -21 1012 0 1037 12 14 31 16 129 14 l116 -3 8 -33z"/>
</g>
</svg>
