<?xml version="1.0" standalone="no"?>
<!DOCTYPE svg PUBLIC "-//W3C//DTD SVG 20010904//EN"
 "http://www.w3.org/TR/2001/REC-SVG-20010904/DTD/svg10.dtd">
<svg version="1.0" xmlns="http://www.w3.org/2000/svg"
 width="676.000000pt" height="409.000000pt" viewBox="0 0 676.000000 409.000000"
 preserveAspectRatio="xMidYMid meet">

<g transform="translate(0.000000,409.000000) scale(0.100000,-0.100000)"
fill="#000000" stroke="none">
<path d="M1427 3884 c-1 -1 -18 -4 -37 -8 -62 -10 -101 -21 -101 -29 2 -19 -1
-20 -9 -2 -6 14 -9 -3 -9 -54 -1 -41 2 -72 5 -68 3 3 6 26 6 51 0 27 4 44 9
40 5 -3 8 -32 5 -63 -2 -32 0 -64 5 -72 6 -10 9 -10 9 -1 0 6 5 12 10 12 6 0
10 -7 10 -15 0 -8 8 -16 18 -16 34 -3 167 3 174 8 5 2 8 55 8 116 -1 81 -3
107 -11 95 -11 -20 -30 -24 -26 -6 1 8 -11 13 -31 13 -18 1 -33 0 -35 -1z
m-97 -49 c0 -8 -4 -15 -10 -15 -5 0 -10 7 -10 15 0 8 5 15 10 15 6 0 10 -7 10
-15z m190 -45 c0 -5 -4 -10 -10 -10 -5 0 -10 5 -10 10 0 6 5 10 10 10 6 0 10
-4 10 -10z m-190 -66 c0 -35 -15 -30 -18 7 -2 19 2 28 8 24 5 -3 10 -17 10
-31z m184 1 c-4 -8 -8 -15 -10 -15 -2 0 -4 7 -4 15 0 8 4 15 10 15 5 0 7 -7 4
-15z m-137 -47 c-3 -7 -5 -2 -5 12 0 14 2 19 5 13 2 -7 2 -19 0 -25z"/>
<path d="M1541 3775 c0 -63 3 -115 8 -115 5 0 9 52 10 115 1 67 -3 115 -8 115
-6 0 -10 -49 -10 -115z"/>
<path d="M1220 3839 c0 -7 -9 -9 -21 -6 -11 3 -43 -1 -70 -9 l-49 -15 0 -114
c0 -123 1 -126 52 -106 47 19 63 24 71 23 4 -1 7 3 7 9 0 5 5 7 10 4 6 -4 10
35 10 109 0 64 -2 116 -5 116 -3 0 -5 -5 -5 -11z m0 -46 c0 -21 -3 -24 -9 -13
-6 8 -8 17 -5 21 2 4 -2 10 -8 12 -8 3 -6 6 5 6 12 1 17 -7 17 -26z m-3 -95
c-3 -7 -5 -2 -5 12 0 14 2 19 5 13 2 -7 2 -19 0 -25z m3 -44 c0 -8 -6 -11 -15
-8 -8 4 -15 9 -15 13 0 4 7 8 15 8 8 0 15 -6 15 -13z"/>
<path d="M1240 3835 c0 -8 2 -15 4 -15 2 0 6 7 10 15 3 8 1 15 -4 15 -6 0 -10
-7 -10 -15z"/>
<path d="M1060 3783 c0 -16 -2 -16 -10 -3 -9 13 -12 12 -26 -5 -13 -17 -16
-18 -24 -5 -7 11 -10 -1 -10 -38 0 -34 4 -51 10 -47 6 4 8 11 5 16 -7 11 3 49
14 49 4 0 5 -16 3 -35 -4 -33 2 -41 31 -36 4 0 7 -10 7 -24 0 -15 -6 -25 -15
-25 -9 0 -12 6 -8 17 4 11 3 14 -6 9 -8 -5 -10 -19 -5 -39 l6 -32 -21 19 c-19
17 -21 17 -21 3 0 -10 4 -17 9 -17 5 0 16 -3 25 -6 12 -4 16 0 16 15 0 12 5
21 11 21 7 0 9 -10 5 -24 -3 -14 -2 -28 4 -31 6 -4 10 36 10 114 0 67 -2 121
-5 121 -3 0 -5 -8 -5 -17z m-5 -74 c11 -16 1 -19 -13 -3 -7 8 -8 14 -3 14 5 0
13 -5 16 -11z"/>
<path d="M1240 3758 c0 -36 4 -35 14 5 4 16 2 27 -4 27 -5 0 -10 -14 -10 -32z"/>
<path d="M972 3740 c0 -14 2 -19 5 -12 2 6 2 18 0 25 -3 6 -5 1 -5 -13z"/>
<path d="M895 3720 c-11 -4 -23 -6 -28 -3 -4 2 -10 -3 -13 -11 -3 -9 -10 -13
-15 -10 -5 3 -9 0 -9 -5 0 -6 -4 -11 -9 -11 -18 0 -91 -54 -91 -67 0 -8 -4
-12 -8 -9 -5 3 -25 -10 -45 -28 -36 -32 -37 -35 -37 -104 0 -43 5 -74 12 -78
8 -5 9 -2 5 9 -3 9 -2 19 3 22 6 4 10 2 10 -4 0 -5 3 -16 6 -25 4 -12 0 -16
-15 -16 -18 0 -21 -6 -21 -41 0 -26 4 -38 11 -33 6 3 8 17 5 30 -4 14 -2 24 4
24 5 0 10 -18 10 -41 0 -48 20 -44 21 4 0 24 2 27 8 14 6 -16 11 -15 43 16 20
19 39 32 42 29 4 -3 6 2 6 11 0 10 6 17 13 17 8 0 23 8 35 18 11 10 33 27 47
38 65 46 72 53 52 54 -10 0 -16 4 -13 9 9 14 -20 32 -40 25 -16 -5 -16 -4 -4
5 8 6 22 8 32 5 14 -4 16 3 14 46 -2 39 0 48 10 40 9 -8 13 0 16 35 2 25 0 45
-4 45 -5 0 -8 -7 -8 -15 0 -19 -17 -20 -22 -1 -2 9 -10 11 -23 6z m34 -29 c9
-6 10 -11 2 -15 -6 -4 -11 -2 -11 4 0 6 -4 9 -9 5 -5 -3 -12 -1 -16 5 -8 12
15 13 34 1z m-23 -89 c-11 -10 -15 4 -8 28 l7 25 3 -23 c2 -13 1 -26 -2 -30z
m-176 -59 c0 -22 -2 -25 -10 -13 -13 20 -13 40 0 40 6 0 10 -12 10 -27z m-66
-18 c-4 -8 -8 -15 -10 -15 -2 0 -4 7 -4 15 0 8 4 15 10 15 5 0 7 -7 4 -15z m5
-62 c0 -25 -1 -26 -9 -8 -12 27 -12 35 0 35 6 0 10 -12 9 -27z m61 -98 c0 -8
-4 -15 -10 -15 -5 0 -7 7 -4 15 4 8 8 15 10 15 2 0 4 -7 4 -15z"/>
<path d="M973 3660 c0 -30 2 -43 4 -27 2 15 2 39 0 55 -2 15 -4 2 -4 -28z"/>
<path d="M1273 3670 c0 -25 2 -35 4 -22 2 12 2 32 0 45 -2 12 -4 2 -4 -23z"/>
<path d="M1241 3644 c0 -11 3 -14 6 -6 3 7 2 16 -1 19 -3 4 -6 -2 -5 -13z"/>
<path d="M940 3599 c0 -5 5 -7 10 -4 6 3 10 8 10 11 0 2 -4 4 -10 4 -5 0 -10
-5 -10 -11z"/>
<path d="M973 3565 c0 -22 2 -30 4 -17 2 12 2 30 0 40 -3 9 -5 -1 -4 -23z"/>
<path d="M990 3559 c0 -5 5 -7 10 -4 6 3 10 8 10 11 0 2 -4 4 -10 4 -5 0 -10
-5 -10 -11z"/>
<path d="M941 3544 c0 -11 3 -14 6 -6 3 7 2 16 -1 19 -3 4 -6 -2 -5 -13z"/>
<path d="M572 3495 c-12 -14 -22 -30 -22 -36 0 -5 -4 -8 -8 -5 -8 5 -58 -46
-127 -129 -14 -16 -32 -44 -40 -62 -9 -18 -26 -45 -39 -60 -12 -15 -30 -48
-40 -73 -10 -25 -23 -52 -31 -60 -7 -8 -16 -33 -20 -54 -4 -24 -10 -35 -14
-27 -8 12 -24 -32 -36 -101 -4 -21 -11 -38 -15 -38 -4 0 -11 -28 -16 -62 -11
-96 -12 -102 -17 -123 -2 -11 1 -23 7 -27 8 -5 7 -8 -1 -8 -8 0 -13 -13 -13
-31 0 -21 -4 -28 -12 -23 -10 6 -10 4 0 -8 9 -11 11 -32 6 -67 l-7 -51 64 -1
c67 -1 143 1 146 5 1 1 4 35 7 76 6 81 26 187 39 208 5 7 9 33 9 57 0 25 4 43
8 40 5 -3 16 22 26 55 9 33 21 60 25 60 5 0 9 5 9 11 0 14 31 80 45 96 5 7 16
19 23 27 6 8 12 22 12 29 0 8 7 20 15 27 8 7 15 21 15 31 0 11 6 19 14 19 15
0 27 56 20 95 -3 19 0 25 13 25 14 0 15 2 4 9 -10 7 -10 10 -1 13 10 3 8 11
-6 33 -17 27 -17 28 -1 22 14 -5 17 -1 16 31 -1 32 -2 33 -8 12 -4 -14 -10
-20 -13 -14 -9 14 2 55 13 48 5 -3 9 7 9 21 0 15 -4 24 -10 20 -5 -3 -10 -1
-10 4 0 18 -15 12 -38 -14z m45 -11 c-3 -3 -12 -4 -19 -1 -8 3 -5 6 6 6 11 1
17 -2 13 -5z m-33 -29 c-4 -8 -8 -15 -10 -15 -2 0 -4 7 -4 15 0 8 4 15 10 15
5 0 7 -7 4 -15z m-37 -117 c-3 -8 -6 -5 -6 6 -1 11 2 17 5 13 3 -3 4 -12 1
-19z m0 -110 c-2 -13 -4 -5 -4 17 -1 22 1 32 4 23 2 -10 2 -28 0 -40z m40 -10
c-3 -8 -6 -5 -6 6 -1 11 2 17 5 13 3 -3 4 -12 1 -19z m-60 -60 c-3 -8 -6 -5
-6 6 -1 11 2 17 5 13 3 -3 4 -12 1 -19z m-285 -213 c3 -14 1 -28 -3 -31 -5 -3
-9 9 -9 25 0 38 6 40 12 6z m-55 -187 c-3 -7 -5 -2 -5 12 0 14 2 19 5 13 2 -7
2 -19 0 -25z"/>
<path d="M1548 3445 c-3 -3 -24 -7 -49 -10 -90 -9 -218 -35 -260 -53 -24 -10
-63 -24 -86 -32 -24 -7 -43 -17 -43 -22 0 -4 -7 -8 -15 -8 -8 0 -15 -4 -15
-10 0 -5 -4 -10 -10 -10 -12 0 -87 -48 -135 -86 -61 -48 -133 -126 -173 -184
-20 -30 -43 -61 -49 -68 -7 -7 -13 -18 -13 -24 0 -6 -13 -37 -30 -70 -16 -32
-30 -64 -30 -71 0 -7 -6 -24 -14 -39 -8 -15 -20 -53 -26 -85 -6 -32 -15 -74
-19 -93 -4 -19 -5 -59 -3 -87 l4 -53 71 -1 c40 0 87 -2 105 -3 39 -4 52 14 52
76 0 24 5 61 11 83 5 22 14 57 20 78 31 122 152 293 269 378 49 36 140 90 159
95 206 55 206 55 240 43 43 -14 119 -13 137 2 8 6 14 8 14 3 0 -4 13 10 30 32
48 64 35 148 -31 194 -26 19 -100 35 -111 25z"/>
<path d="M621 3267 c2 -28 2 -29 7 -7 l5 25 8 -25 7 -25 1 26 c1 15 -5 29 -14
33 -12 4 -15 -2 -14 -27z"/>
<path d="M2875 3064 c-136 -11 -327 -51 -404 -85 -174 -77 -285 -148 -391
-251 -105 -101 -200 -219 -200 -247 0 -6 -4 -11 -8 -11 -8 0 -82 -150 -82
-167 0 -5 -7 -24 -16 -41 -8 -17 -16 -39 -17 -49 -1 -14 -10 -18 -46 -19 -25
0 -55 -3 -66 -6 -11 -4 -33 -9 -50 -13 -31 -7 -58 -16 -110 -36 -16 -7 -34
-13 -40 -14 -5 -2 -26 -12 -45 -24 -19 -11 -56 -32 -81 -45 -26 -14 -64 -41
-84 -61 -21 -19 -40 -35 -42 -35 -2 0 -20 -17 -38 -37 -25 -27 -35 -48 -35
-70 0 -17 -5 -35 -11 -39 -8 -4 -7 -9 2 -15 11 -7 10 -9 -4 -9 -10 0 -16 -4
-12 -9 3 -5 1 -12 -5 -16 -6 -4 -10 9 -10 32 -1 57 -17 19 -19 -42 -2 -101 -5
-110 -28 -113 -14 -2 -20 -8 -16 -18 3 -8 0 -14 -6 -14 -6 0 -11 11 -11 25 0
18 -5 25 -18 25 -15 0 -19 -9 -21 -50 -2 -39 1 -50 14 -50 10 0 15 -10 15 -31
0 -23 4 -30 15 -26 8 4 17 2 20 -3 4 -6 -5 -10 -19 -10 -25 0 -31 12 -27 48 1
8 -6 12 -16 10 -15 -2 -18 3 -16 32 1 19 0 28 -3 20 -3 -8 -10 -25 -16 -36 -7
-14 -7 -28 0 -40 5 -11 6 -28 1 -39 -6 -17 -8 -16 -8 9 -1 34 -12 28 -16 -9
-3 -22 1 -25 26 -25 16 0 29 -5 29 -11 0 -6 -7 -9 -15 -5 -8 3 -15 0 -15 -5 0
-6 9 -9 20 -6 11 3 23 1 26 -4 3 -5 -8 -9 -24 -9 -18 0 -32 6 -36 16 -4 9 -9
15 -11 12 -10 -9 7 -38 22 -38 8 0 11 -5 8 -10 -3 -5 -17 -10 -31 -10 -17 0
-24 -5 -24 -20 0 -11 5 -20 11 -20 6 0 9 7 5 15 -3 9 0 15 9 15 9 0 12 -6 9
-15 -5 -11 -2 -13 10 -9 9 3 16 1 16 -5 0 -6 -13 -11 -28 -11 -27 0 -52 -15
-52 -33 0 -4 5 -5 10 -2 6 3 10 2 10 -4 0 -5 -5 -13 -10 -16 -6 -3 -10 -47
-10 -96 0 -50 3 -88 8 -86 4 3 7 -16 8 -42 1 -66 61 -251 80 -244 10 4 14 -4
14 -28 0 -26 3 -30 10 -19 7 11 10 7 10 -17 0 -23 5 -33 15 -33 8 0 15 -9 15
-20 0 -12 12 -33 26 -48 l25 -27 -2 70 c-2 39 0 76 4 83 6 8 2 12 -12 12 -12
0 -21 -8 -24 -22 -2 -13 -5 -2 -6 25 -1 41 2 47 19 47 11 0 19 3 18 8 -1 4 2
22 6 40 5 22 4 38 -3 45 -6 6 -11 19 -11 28 0 9 -7 22 -15 29 -11 9 -12 16 -5
25 8 9 7 14 -1 17 -18 6 -24 232 -9 326 12 77 45 176 80 242 10 19 27 51 36
70 10 19 28 44 41 55 13 11 23 23 23 27 0 3 23 29 50 57 28 29 48 57 44 62 -3
6 0 10 7 8 24 -3 35 1 55 19 10 9 31 23 47 29 15 7 27 17 27 23 0 6 5 8 10 5
6 -4 22 0 35 9 22 15 94 42 134 51 9 3 45 11 80 20 35 8 68 15 75 14 70 -8
108 17 130 89 22 71 58 166 65 172 3 3 22 35 41 73 32 62 62 100 157 201 45
47 168 146 182 146 6 0 11 4 11 8 0 25 236 116 380 147 119 26 385 5 508 -39
151 -54 296 -143 402 -247 127 -124 172 -188 234 -329 55 -126 56 -128 89
-143 51 -25 117 15 117 70 0 41 -91 236 -153 328 -174 257 -441 439 -737 505
-73 16 -273 43 -282 38 -2 -1 -21 -3 -43 -4z m-1428 -1021 c-2 -16 -4 -5 -4
22 0 28 2 40 4 28 2 -13 2 -35 0 -50z m223 57 c0 -5 -2 -10 -4 -10 -3 0 -8 5
-11 10 -3 6 -1 10 4 10 6 0 11 -4 11 -10z m-244 -75 c-1 -8 -5 -17 -8 -21 -4
-3 -5 -11 -2 -18 3 -7 0 -23 -5 -37 -7 -19 -9 -12 -6 31 3 63 2 60 14 60 5 0
8 -7 7 -15z m-31 -45 c3 -5 -1 -10 -10 -10 -9 0 -13 5 -10 10 3 6 8 10 10 10
2 0 7 -4 10 -10z m-68 -40 c-3 -11 -1 -20 4 -20 5 0 9 -5 9 -12 0 -6 -8 -4
-19 6 -14 13 -20 14 -23 5 -3 -9 -6 -8 -11 4 -5 12 -1 17 13 17 11 0 20 5 20
10 0 6 3 10 6 10 4 0 4 -9 1 -20z m-341 -341 c1 -16 -2 -29 -7 -29 -5 0 -9 17
-9 37 0 42 14 36 16 -8z m72 -6 c-4 -21 -58 -30 -58 -9 0 9 7 13 20 11 11 -2
20 0 20 6 0 5 5 9 11 9 6 0 9 -7 7 -17z m-28 -42 c0 -5 -7 -14 -15 -21 -13
-10 -15 -9 -15 9 0 12 6 21 15 21 8 0 15 -4 15 -9z m-56 -73 c6 -5 2 -8 -11
-8 -17 0 -20 4 -15 22 4 16 7 18 10 8 3 -8 10 -18 16 -22z m26 -28 c0 -5 -2
-10 -4 -10 -3 0 -8 5 -11 10 -3 6 -1 10 4 10 6 0 11 -4 11 -10z m-33 -47 c-4
-3 -2 -12 4 -20 8 -9 8 -13 1 -13 -6 0 -13 -8 -15 -17 -2 -10 -4 -1 -4 20 0
20 5 37 10 37 6 0 7 -3 4 -7z m3 -114 c0 -22 -5 -29 -20 -29 -12 0 -20 7 -20
18 0 14 2 15 10 2 8 -12 10 -12 16 3 3 9 3 24 0 33 -3 8 -2 12 4 9 6 -3 10
-19 10 -36z m-50 -95 c0 -8 -4 -14 -10 -14 -5 0 -10 9 -10 21 0 11 5 17 10 14
6 -3 10 -13 10 -21z m-5 -44 c3 -5 -1 -10 -10 -10 -9 0 -13 5 -10 10 3 6 8 10
10 10 2 0 7 -4 10 -10z m102 -262 c-3 -8 -6 -5 -6 6 -1 11 2 17 5 13 3 -3 4
-12 1 -19z m3 -89 c0 -5 -4 -9 -10 -9 -5 0 -10 7 -10 16 0 8 5 12 10 9 6 -3
10 -10 10 -16z m30 -80 c-7 -11 -14 -18 -17 -15 -8 8 5 36 17 36 7 0 7 -6 0
-21z m10 -39 c0 -5 -2 -10 -4 -10 -3 0 -8 5 -11 10 -3 6 -1 10 4 10 6 0 11 -4
11 -10z"/>
<path d="M1823 2995 c-24 -17 -39 -71 -28 -105 7 -23 61 -60 79 -55 6 2 23 6
38 9 39 9 60 53 47 99 -16 60 -87 87 -136 52z"/>
<path d="M1315 2866 c-5 -2 -22 -7 -38 -10 -36 -8 -115 -86 -122 -122 -3 -16
-10 -36 -15 -45 -21 -39 10 -135 61 -190 22 -24 51 -64 64 -89 30 -57 67 -100
92 -104 11 -2 35 -11 55 -19 27 -12 38 -12 42 -4 3 9 5 9 5 0 1 -20 72 -16
123 7 50 22 88 56 125 112 20 30 25 49 25 107 0 72 -16 141 -33 141 -5 0 -9 6
-9 13 0 22 -73 83 -116 98 -21 8 -47 24 -57 36 -30 37 -81 62 -138 67 -30 3
-58 4 -64 2z m222 -138 c-3 -8 -6 -5 -6 6 -1 11 2 17 5 13 3 -3 4 -12 1 -19z
m-30 -75 c-2 -16 -4 -5 -4 22 0 28 2 40 4 28 2 -13 2 -35 0 -50z m-227 -17 c0
-3 -4 -8 -10 -11 -5 -3 -10 -1 -10 4 0 6 5 11 10 11 6 0 10 -2 10 -4z m216
-103 c-10 -10 -19 5 -10 18 6 11 8 11 12 0 2 -7 1 -15 -2 -18z m-247 -6 c12
-15 12 -17 -3 -11 -9 3 -16 13 -16 22 0 8 1 13 3 11 1 -2 9 -12 16 -22z m208
-79 c-2 -13 -4 -3 -4 22 0 25 2 35 4 23 2 -13 2 -33 0 -45z m30 -115 c-2 -32
-3 -6 -3 57 0 63 1 89 3 58 2 -32 2 -84 0 -115z m-30 35 c-2 -13 -4 -5 -4 17
-1 22 1 32 4 23 2 -10 2 -28 0 -40z m7 -43 c-4 -8 -8 -15 -10 -15 -2 0 -4 7
-4 15 0 8 4 15 10 15 5 0 7 -7 4 -15z"/>
<path d="M5260 2014 c-25 -9 -59 -29 -75 -45 l-31 -29 -282 0 -283 0 -24 -26
c-30 -32 -32 -73 -6 -105 23 -29 75 -34 386 -38 l210 -2 28 -30 c61 -64 145
-72 221 -20 46 31 68 77 68 143 -1 80 -39 130 -116 153 -27 8 -50 15 -50 15
-1 -1 -21 -8 -46 -16z"/>
<path d="M2738 1930 c-35 -36 -33 -71 8 -107 23 -21 36 -23 137 -24 62 0 149
-2 195 -3 76 -3 84 -1 107 22 35 34 34 85 -1 117 -27 25 -29 25 -221 25 l-195
0 -30 -30z"/>
<path d="M3348 1925 c-36 -36 -35 -69 1 -106 34 -33 -44 -29 609 -32 l353 -2
19 25 c28 36 25 81 -5 110 l-26 24 -462 4 -462 4 -27 -27z"/>
<path d="M1035 1760 c3 -5 8 -10 11 -10 2 0 4 5 4 10 0 6 -5 10 -11 10 -5 0
-7 -4 -4 -10z"/>
<path d="M1012 1720 c0 -14 2 -19 5 -12 2 6 2 18 0 25 -3 6 -5 1 -5 -13z"/>
<path d="M992 1690 c0 -14 2 -19 5 -12 2 6 2 18 0 25 -3 6 -5 1 -5 -13z"/>
<path d="M6222 1689 c-23 -11 -51 -32 -62 -46 l-19 -25 -353 6 c-194 3 -693 8
-1108 11 -415 3 -879 8 -1031 11 l-275 6 -27 -32 c-15 -17 -27 -41 -27 -53 0
-26 26 -61 55 -74 11 -6 189 -11 415 -12 217 -1 458 -4 535 -6 77 -2 457 -7
845 -10 388 -3 765 -8 838 -11 133 -4 134 -4 158 -33 29 -35 84 -55 138 -52
44 2 109 43 125 79 6 12 14 22 19 22 5 0 9 23 11 51 6 136 -122 227 -237 168z"/>
<path d="M1010 1669 c0 -18 2 -19 15 -5 8 8 15 17 15 20 0 3 -7 6 -15 6 -9 0
-15 -9 -15 -21z"/>
<path d="M3005 1625 c-34 -33 -33 -78 2 -111 26 -24 33 -26 111 -22 74 3 86 6
103 27 26 32 24 77 -6 106 -22 22 -32 25 -105 25 -73 0 -83 -3 -105 -25z"/>
<path d="M881 1424 c0 -11 3 -14 6 -6 3 7 2 16 -1 19 -3 4 -6 -2 -5 -13z"/>
<path d="M5863 1397 c-17 -7 -48 -27 -69 -46 l-37 -34 -426 7 c-417 7 -652 9
-2081 22 l-705 6 -27 -22 c-34 -26 -37 -73 -8 -109 19 -23 27 -24 168 -27 81
-1 174 -3 207 -4 33 -1 65 -1 70 0 15 3 135 -1 157 -5 10 -2 18 1 18 6 0 6 5
7 12 3 7 -4 73 -9 148 -10 592 -7 1185 -15 1620 -19 283 -3 592 -8 685 -10
l170 -5 25 -28 c84 -96 262 -49 286 75 11 54 11 64 -4 103 -19 48 -40 70 -90
91 -49 21 -73 23 -119 6z"/>
<path d="M2123 1345 c-53 -23 -58 -98 -8 -131 29 -19 177 -27 212 -11 66 30
61 125 -7 146 -51 15 -158 13 -197 -4z"/>
<path d="M6468 1090 c-42 -13 -88 -43 -94 -63 -6 -18 -24 -19 -547 -13 -298 3
-689 9 -868 12 l-326 6 -27 -33 c-22 -25 -26 -38 -21 -63 10 -45 40 -64 115
-70 36 -3 346 -8 690 -11 344 -3 701 -8 795 -11 165 -6 170 -7 195 -31 82 -83
196 -72 264 25 86 122 -34 294 -176 252z"/>
<path d="M3287 1036 c-61 -22 -56 -125 7 -145 18 -6 251 -13 576 -16 437 -5
550 -3 570 7 50 27 48 127 -3 143 -12 4 -227 9 -477 11 -250 2 -498 5 -551 7
-52 1 -107 -2 -122 -7z"/>
<path d="M1080 866 c0 -9 5 -16 10 -16 6 0 10 4 10 9 0 6 -4 13 -10 16 -5 3
-10 -1 -10 -9z"/>
<path d="M1040 815 c0 -8 5 -15 10 -15 6 0 10 7 10 15 0 8 -4 15 -10 15 -5 0
-10 -7 -10 -15z"/>
<path d="M1087 806 c4 -6 6 -22 5 -36 -2 -20 -1 -22 7 -10 9 13 11 13 11 -1 0
-8 -7 -24 -15 -35 -19 -25 -19 -34 1 -34 14 0 14 -1 0 -16 -9 -8 -13 -21 -9
-27 4 -7 9 -4 14 9 5 14 7 10 6 -14 -1 -21 -6 -31 -14 -27 -7 2 -13 0 -13 -6
0 -5 7 -12 15 -15 8 -4 13 -10 10 -14 -6 -10 168 -177 195 -185 11 -3 20 -11
20 -16 0 -5 6 -9 14 -9 8 0 22 -8 32 -17 10 -10 18 -17 18 -15 1 4 44 -14 66
-27 26 -15 119 -50 150 -56 3 -1 21 -5 40 -10 19 -5 42 -9 50 -10 8 -1 35 -4
60 -8 25 -3 506 -9 1070 -12 564 -3 1230 -8 1480 -11 390 -5 465 -4 528 9 80
18 183 60 206 86 31 35 20 106 -20 121 -41 16 -65 12 -144 -22 l-75 -33 -570
3 c-1517 9 -1785 8 -1785 -2 0 -7 -3 -8 -8 -1 -4 6 -42 11 -84 12 -72 2 -77 1
-81 -20 l-4 -22 -2 22 -1 22 -242 1 c-251 0 -325 7 -392 35 -32 13 -40 14 -47
3 -7 -10 -9 -9 -9 5 0 10 -4 16 -8 13 -5 -3 -22 3 -38 13 -16 10 -37 17 -47
15 -9 -1 -17 3 -17 9 0 7 -26 29 -59 50 -32 20 -93 71 -136 112 -43 41 -82 75
-86 75 -5 0 -9 9 -9 20 0 12 -5 26 -10 33 -37 44 -47 52 -62 53 -11 1 -15 -3
-11 -10z m46 -57 c-8 -29 -13 -23 -13 14 0 22 3 28 9 18 5 -7 6 -22 4 -32z
m-6 -111 c-3 -7 -5 -2 -5 12 0 14 2 19 5 13 2 -7 2 -19 0 -25z m13 -59 c0 -6
-4 -7 -10 -4 -5 3 -10 11 -10 16 0 6 5 7 10 4 6 -3 10 -11 10 -16z m417 -206
c-3 -10 -5 -4 -5 12 0 17 2 24 5 18 2 -7 2 -21 0 -30z m-31 -12 c-4 -5 0 -12
6 -14 8 -3 6 -6 -4 -6 -18 -1 -24 10 -11 22 9 10 15 8 9 -2z m711 -23 c-3 -8
-6 -5 -6 6 -1 11 2 17 5 13 3 -3 4 -12 1 -19z"/>
<path d="M5685 793 c-28 -8 -68 -35 -84 -57 -14 -19 -29 -19 -625 -13 -336 4
-943 10 -1349 14 l-737 6 -25 -23 c-34 -32 -33 -79 1 -111 30 -28 -45 -25 839
-33 363 -3 759 -8 880 -11 121 -3 393 -8 605 -11 l385 -6 30 -28 c33 -31 92
-60 124 -60 45 0 103 33 138 79 33 43 35 50 30 103 -5 55 -32 118 -51 118 -5
0 -17 7 -26 15 -18 16 -101 28 -135 18z"/>
<path d="M2453 732 c-34 -27 -44 -63 -26 -99 17 -36 53 -48 156 -52 63 -2 69
0 97 28 45 44 38 100 -15 125 -47 23 -182 21 -212 -2z"/>
</g>
</svg>
