<?xml version="1.0" standalone="no"?>
<!DOCTYPE svg PUBLIC "-//W3C//DTD SVG 20010904//EN"
 "http://www.w3.org/TR/2001/REC-SVG-20010904/DTD/svg10.dtd">
<svg version="1.0" xmlns="http://www.w3.org/2000/svg"
 width="225.000000pt" height="225.000000pt" viewBox="0 0 225.000000 225.000000"
 preserveAspectRatio="xMidYMid meet">

<g transform="translate(0.000000,225.000000) scale(0.100000,-0.100000)"
fill="#000000" stroke="none">
<path d="M318 1798 c175 -249 371 -529 436 -621 92 -131 116 -172 110 -186 -5
-10 -198 -232 -429 -495 -231 -262 -421 -481 -423 -487 -2 -5 36 -9 90 -9 l93
0 380 434 c209 239 384 434 389 432 5 -1 145 -195 311 -432 l301 -429 332 -3
c183 -1 332 0 332 2 0 3 -203 294 -450 647 -248 353 -449 646 -448 650 2 7
287 332 761 871 l69 78 -99 0 -98 0 -360 -410 c-198 -226 -363 -410 -366 -410
-3 0 -135 185 -294 410 l-287 410 -334 0 -333 0 317 -452z m954 -671 c384
-538 698 -980 698 -983 0 -2 -67 -4 -150 -4 l-149 0 -701 980 c-385 540 -700
983 -700 986 0 2 69 3 152 2 l153 -3 697 -978z"/>
</g>
</svg>
